<?xml version="1.0" standalone="no"?>
<!DOCTYPE svg PUBLIC "-//W3C//DTD SVG 20010904//EN"
 "http://www.w3.org/TR/2001/REC-SVG-20010904/DTD/svg10.dtd">
<svg version="1.0" xmlns="http://www.w3.org/2000/svg"
 width="23" height="23" viewBox="0 0 938.000000 938.000000"
 preserveAspectRatio="xMidYMid meet">
<g transform="translate(0.000000,938.000000) scale(0.100000,-0.100000)"
fill="#FFFFFF" stroke="none">
<path d="M5395 9133 c-153 -32 -292 -119 -443 -278 -110 -115 -201 -250 -281
-415 -120 -249 -136 -334 -136 -710 0 -228 3 -289 18 -360 33 -152 117 -290
258 -425 157 -150 289 -190 487 -149 156 32 296 115 443 264 200 202 352 494
420 808 26 122 37 420 20 544 -75 526 -382 808 -786 721z"/>
<path d="M3320 8966 c-171 -71 -271 -138 -381 -253 -222 -232 -331 -567 -331
-1018 0 -417 80 -676 282 -921 107 -129 270 -236 398 -263 267 -55 531 88 730
398 52 82 149 288 167 356 25 96 34 233 34 500 0 398 -17 510 -109 700 -124
258 -325 442 -550 504 -97 27 -170 26 -240 -3z"/>
<path d="M7020 8001 c-120 -34 -173 -59 -268 -131 -98 -72 -279 -261 -359
-373 -203 -287 -329 -712 -310 -1042 24 -393 191 -659 458 -730 71 -19 220
-19 294 0 401 103 779 596 902 1175 24 110 27 147 27 315 0 163 -3 203 -22
277 -57 227 -174 397 -324 471 -67 32 -207 67 -263 66 -22 -1 -83 -13 -135
-28z"/>
<path d="M1653 7430 c-250 -66 -398 -196 -542 -479 -120 -235 -171 -449 -171
-716 0 -216 32 -384 105 -556 104 -243 300 -429 492 -470 186 -38 391 38 564
210 448 446 462 1460 27 1856 -89 81 -296 176 -377 174 -14 0 -58 -9 -98 -19z"/>
<path d="M4120 6480 c-283 -27 -487 -98 -717 -252 -147 -98 -344 -295 -483
-483 -57 -77 -119 -160 -137 -185 -68 -90 -245 -278 -354 -375 -263 -237 -386
-292 -914 -410 -269 -59 -422 -119 -546 -213 -439 -333 -422 -1006 40 -1539
194 -224 428 -340 750 -373 126 -12 440 -13 616 0 399 28 573 33 721 22 184
-15 310 -40 479 -96 189 -63 332 -129 880 -406 763 -385 945 -453 1272 -481
317 -27 681 42 978 185 221 106 380 220 560 400 143 143 208 227 275 357 130
252 144 494 41 705 -104 213 -270 385 -711 736 -287 229 -387 333 -465 488
-61 122 -91 245 -150 625 -44 282 -93 448 -166 572 -88 147 -333 330 -674 503
-240 123 -394 176 -595 205 -125 19 -560 28 -700 15z"/>
<path d="M8045 6069 c-222 -30 -377 -119 -605 -348 -204 -205 -315 -376 -384
-591 -47 -146 -66 -269 -66 -431 0 -203 25 -304 105 -429 200 -310 571 -357
966 -121 341 202 599 556 705 966 26 101 29 125 29 285 0 193 -13 257 -77 385
-41 79 -155 193 -230 228 -112 53 -295 76 -443 56z"/>
</g>
</svg>
